<mxfile host="localhost" modified="2020-05-15T10:20:52.170Z" agent="5.0 (X11; Linux x86_64) AppleWebKit/537.36 (KHTML, like Gecko) VSCodium/1.45.0 Chrome/78.0.3904.130 Electron/7.2.4 Safari/537.36" etag="HTvf04kRyleJSN-aOmeY" version="13.0.9">
    <diagram id="gCDWsnxuQSPxM6q4-7yv" name="Page-1">
        <mxGraphModel dx="1048" dy="605" grid="1" gridSize="10" guides="1" tooltips="1" connect="1" arrows="1" fold="1" page="1" pageScale="1" pageWidth="827" pageHeight="1169" math="0" shadow="0">
            <root>
                <mxCell id="0"/>
                <mxCell id="1" parent="0"/>
                <mxCell id="13" value="&lt;b&gt;ViewModel&lt;/b&gt;" style="whiteSpace=wrap;html=1;aspect=variable;" parent="1" vertex="1">
                    <mxGeometry x="470" y="270" width="110" height="60" as="geometry"/>
                </mxCell>
                <mxCell id="21" value="&lt;b&gt;SourceResult&lt;/b&gt;" style="shape=hexagon;perimeter=hexagonPerimeter2;whiteSpace=wrap;html=1;" parent="1" vertex="1">
                    <mxGeometry x="70" y="260" width="120" height="80" as="geometry"/>
                </mxCell>
                <mxCell id="34" value="&lt;b&gt;SourceInterface&lt;/b&gt;" style="ellipse;whiteSpace=wrap;html=1;" parent="1" vertex="1">
                    <mxGeometry x="10" y="420" width="120" height="80" as="geometry"/>
                </mxCell>
                <mxCell id="35" value="" style="shape=flexArrow;endArrow=classic;html=1;" parent="1" edge="1">
                    <mxGeometry width="50" height="50" relative="1" as="geometry">
                        <mxPoint x="80" y="400" as="sourcePoint"/>
                        <mxPoint x="100" y="350" as="targetPoint"/>
                    </mxGeometry>
                </mxCell>
                <mxCell id="39" value="&lt;b&gt;SPARQL&lt;/b&gt;" style="shape=cylinder;whiteSpace=wrap;html=1;boundedLbl=1;backgroundOutline=1;" parent="1" vertex="1">
                    <mxGeometry x="40" y="510" width="60" height="50" as="geometry"/>
                </mxCell>
                <mxCell id="40" value="&lt;b&gt;Auto Tune&lt;/b&gt;" style="shape=process;whiteSpace=wrap;html=1;backgroundOutline=1;fillColor=#CCE5FF;" parent="1" vertex="1">
                    <mxGeometry x="250" y="330" width="150" height="60" as="geometry"/>
                </mxCell>
                <mxCell id="46" value="&lt;b&gt;Mapper&lt;/b&gt;" style="whiteSpace=wrap;html=1;aspect=variable;" parent="1" vertex="1">
                    <mxGeometry x="250" y="270" width="150" height="60" as="geometry"/>
                </mxCell>
                <mxCell id="59" value="" style="endArrow=classic;startArrow=classic;html=1;fillColor=#CCE5FF;" parent="1" edge="1">
                    <mxGeometry width="50" height="50" relative="1" as="geometry">
                        <mxPoint x="140" y="450" as="sourcePoint"/>
                        <mxPoint x="250" y="400" as="targetPoint"/>
                    </mxGeometry>
                </mxCell>
                <mxCell id="60" value="&lt;b&gt;Queries&lt;/b&gt;" style="text;html=1;strokeColor=none;fillColor=#CCE5FF;align=center;verticalAlign=middle;whiteSpace=wrap;rounded=0;" parent="1" vertex="1">
                    <mxGeometry x="150" y="400" width="80" height="30" as="geometry"/>
                </mxCell>
                <mxCell id="61" value="" style="endArrow=classic;startArrow=classic;html=1;fillColor=#CCE5FF;entryX=0;entryY=0.5;entryDx=0;entryDy=0;" edge="1" parent="1" target="46">
                    <mxGeometry width="50" height="50" relative="1" as="geometry">
                        <mxPoint x="190" y="300" as="sourcePoint"/>
                        <mxPoint x="250" y="325" as="targetPoint"/>
                    </mxGeometry>
                </mxCell>
                <mxCell id="62" value="" style="endArrow=classic;startArrow=classic;html=1;fillColor=#CCE5FF;entryX=0;entryY=0.5;entryDx=0;entryDy=0;exitX=1;exitY=0.5;exitDx=0;exitDy=0;" edge="1" parent="1" source="46" target="13">
                    <mxGeometry width="50" height="50" relative="1" as="geometry">
                        <mxPoint x="480" y="240" as="sourcePoint"/>
                        <mxPoint x="540" y="265" as="targetPoint"/>
                    </mxGeometry>
                </mxCell>
                <mxCell id="64" value="&lt;b&gt;View+&lt;/b&gt;&lt;b&gt;&lt;br&gt;&lt;/b&gt;" style="shape=note;whiteSpace=wrap;html=1;backgroundOutline=1;darkOpacity=0.05;" vertex="1" parent="1">
                    <mxGeometry x="650" y="247" width="80" height="100" as="geometry"/>
                </mxCell>
                <mxCell id="65" value="" style="endArrow=classic;startArrow=classic;html=1;fillColor=#CCE5FF;entryX=0;entryY=0.5;entryDx=0;entryDy=0;entryPerimeter=0;" edge="1" parent="1" target="64">
                    <mxGeometry width="50" height="50" relative="1" as="geometry">
                        <mxPoint x="580" y="297.5" as="sourcePoint"/>
                        <mxPoint x="640" y="322.5" as="targetPoint"/>
                    </mxGeometry>
                </mxCell>
            </root>
        </mxGraphModel>
    </diagram>
</mxfile>